<?xml version="1.0" encoding="UTF-8"?>
<svg width="236px" height="184px" viewBox="0 0 236 184" version="1.1" xmlns="http://www.w3.org/2000/svg" xmlns:xlink="http://www.w3.org/1999/xlink">
    <!-- Generator: Sketch 42 (36781) - http://www.bohemiancoding.com/sketch -->
    <title>Group 3</title>
    <desc>Created with Sketch.</desc>
    <defs></defs>
    <g id="Page-1" stroke="none" stroke-width="1" fill="none" fill-rule="evenodd">
        <g id="Artboard" transform="translate(-69.000000, -170.000000)">
            <g id="Group-3" transform="translate(69.000000, 170.000000)">
                <g id="Group-2" fill="#FFDA00">
                    <polygon id="Path" points="17.8317005 163.286494 17.8317005 35.6125349 18.6397908 37.3573367 22.1929177 58.5053331 32.8491659 163.286494"></polygon>
                    <polygon id="Path" transform="translate(58.238363, 32.931935) rotate(62.000000) translate(-58.238363, -32.931935) " points="55.8491484 96.7689146 55.8491484 -30.9050441 57.8426764 -18.5848241 60.6275779 96.6593636"></polygon>
                    <polygon id="Path-2" points="1.36117813 61.005577 17.8168772 35.6379064 112.51448 2.26416771 96.3719572 9.19475637 18.0977594 37.5420448 7.25747674 57.4010022"></polygon>
                </g>
                <g id="Group-2" transform="translate(178.000000, 82.000000) scale(-1, 1) translate(-178.000000, -82.000000) translate(120.000000, 0.000000)" fill="#FFDA00">
                    <polygon id="Path" points="17.8317005 163.286494 17.8317005 35.6125349 18.6397908 37.3573367 22.1929177 58.5053331 32.8491659 163.286494"></polygon>
                    <polygon id="Path" transform="translate(58.238363, 32.931935) rotate(62.000000) translate(-58.238363, -32.931935) " points="55.8491484 96.7689146 55.8491484 -30.9050441 57.8426764 -18.5848241 60.6275779 96.6593636"></polygon>
                    <polygon id="Path-2" points="1.36117813 61.005577 17.8168772 35.6379064 112.51448 2.26416771 96.3719572 9.19475637 18.0977594 37.5420448 7.25747674 57.4010022"></polygon>
                </g>
                <path d="M62,121.44 L62.64,121.76 C62.64,122.144002 62.7253325,122.485332 62.896,122.784 C63.1946682,123.296003 63.781329,123.797331 64.656,124.288 C65.530671,124.778669 66.5333277,125.215998 67.664,125.6 C68.7946723,125.984002 69.9786605,126.293332 71.216,126.528 C72.4533395,126.762668 73.5626618,126.88 74.544,126.88 C75.269337,126.88 76.2079942,126.826667 77.36,126.72 C78.5120058,126.613333 79.6426611,126.389335 80.752,126.048 C81.8613389,125.706665 82.8213293,125.237336 83.632,124.64 C84.4426707,124.042664 84.848,123.253338 84.848,122.272 C84.848,121.290662 84.4746704,120.565336 83.728,120.096 C82.9813296,119.626664 82.0000061,119.285334 80.784,119.072 C79.5679939,118.858666 78.1813411,118.72 76.624,118.656 C75.0666589,118.592 73.4773414,118.496001 71.856,118.368 C70.2346586,118.239999 68.6453411,118.026668 67.088,117.728 C65.5306589,117.429332 64.1440061,116.928004 62.928,116.224 C61.7119939,115.519996 60.7306704,114.560006 59.984,113.344 C59.2373296,112.127994 58.864,110.538676 58.864,108.576 C58.864,107.253327 59.1733302,105.952006 59.792,104.672 C60.4106698,103.391994 61.3599936,102.261338 62.64,101.28 C63.9200064,100.298662 65.5413235,99.4986698 67.504,98.88 C69.4666765,98.2613302 71.7706534,97.952 74.416,97.952 C76.6773446,97.952 78.6399917,98.122665 80.304,98.464 C81.9680083,98.805335 83.4079939,99.1679981 84.624,99.552 C85.8400061,99.9360019 86.8639958,100.298665 87.696,100.64 C88.5280042,100.981335 89.2213306,101.152 89.776,101.152 C90.3733363,101.152 90.7999987,101.024001 91.056,100.768 L91.824,101.28 L87.408,109.28 L86.768,109.024 C86.6826662,108.426664 86.5120013,107.936002 86.256,107.552 C85.914665,107.039997 85.3493373,106.538669 84.56,106.048 C83.7706627,105.557331 82.842672,105.120002 81.776,104.736 C80.709328,104.351998 79.5573395,104.042668 78.32,103.808 C77.0826605,103.573332 75.8453395,103.456 74.608,103.456 C73.6693286,103.456 72.6986717,103.530666 71.696,103.68 C70.6933283,103.829334 69.7866707,104.053332 68.976,104.352 C68.1653293,104.650668 67.493336,105.045331 66.96,105.536 C66.426664,106.026669 66.16,106.634663 66.16,107.36 C66.16,108.384005 66.5333296,109.151997 67.28,109.664 C68.0266704,110.176003 69.0079939,110.559999 70.224,110.816 C71.4400061,111.072001 72.8266589,111.242666 74.384,111.328 C75.9413411,111.413334 77.5306586,111.519999 79.152,111.648 C80.7733414,111.776001 82.3626589,111.999998 83.92,112.32 C85.4773411,112.640002 86.8639939,113.151996 88.08,113.856 C89.2960061,114.560004 90.2773296,115.509327 91.024,116.704 C91.7706704,117.898673 92.144,119.45599 92.144,121.376 C92.144,123.594678 91.5573392,125.407993 90.384,126.816 C89.2106608,128.224007 87.7493421,129.333329 86,130.144 C84.2506579,130.954671 82.3626768,131.498665 80.336,131.776 C78.3093232,132.053335 76.4213421,132.192 74.672,132.192 C72.2399878,132.192 70.2026749,132.053335 68.56,131.776 C66.9173251,131.498665 65.5520054,131.157335 64.464,130.752 C63.3759946,130.346665 62.5120032,129.984002 61.872,129.664 C61.2319968,129.343998 60.6773357,129.184 60.208,129.184 C59.9093318,129.184 59.6320013,129.354665 59.376,129.696 L58.48,129.184 L62,121.44 Z M110.210405,129.696 C110.210405,130.080002 110.338404,130.367999 110.594405,130.56 C110.850407,130.752001 111.14907,130.848 111.490405,130.848 L111.490405,132 L101.506405,132 L101.506405,130.848 C102.445077,130.848 102.914405,130.464004 102.914405,129.696 L102.914405,100.64 C102.914405,99.8719962 102.445077,99.488 101.506405,99.488 L101.506405,98.336 L111.490405,98.336 L111.490405,99.488 C111.14907,99.488 110.850407,99.583999 110.594405,99.776 C110.338404,99.968001 110.210405,100.255998 110.210405,100.64 L110.210405,112.8 L123.458405,102.368 C124.055742,101.855997 124.52507,101.440002 124.866405,101.12 C125.20774,100.799998 125.378405,100.533334 125.378405,100.32 C125.378405,100.021332 125.282406,99.8080006 125.090405,99.68 C124.898404,99.5519994 124.674407,99.488 124.418405,99.488 L124.418405,98.336 L137.858405,98.336 L137.858405,99.488 C137.090401,99.488 136.322409,99.8079968 135.554405,100.448 L120.834405,112.16 L134.274405,127.712 C134.829075,128.352003 135.479735,128.98133 136.226405,129.6 C136.973076,130.21867 137.709068,130.634666 138.434405,130.848 L138.434405,132 L126.594405,132 L126.594405,130.848 C127.149075,130.848 127.426405,130.698668 127.426405,130.4 C127.426405,130.186666 127.127742,129.717337 126.530405,128.992 L115.586405,116.384 L110.210405,120.544 L110.210405,129.696 Z M147.66881,121.44 L148.30881,121.76 C148.30881,122.144002 148.394143,122.485332 148.56481,122.784 C148.863479,123.296003 149.450139,123.797331 150.32481,124.288 C151.199482,124.778669 152.202138,125.215998 153.33281,125.6 C154.463483,125.984002 155.647471,126.293332 156.88481,126.528 C158.12215,126.762668 159.231472,126.88 160.21281,126.88 C160.938147,126.88 161.876805,126.826667 163.02881,126.72 C164.180816,126.613333 165.311472,126.389335 166.42081,126.048 C167.530149,125.706665 168.49014,125.237336 169.30081,124.64 C170.111481,124.042664 170.51681,123.253338 170.51681,122.272 C170.51681,121.290662 170.143481,120.565336 169.39681,120.096 C168.65014,119.626664 167.668817,119.285334 166.45281,119.072 C165.236804,118.858666 163.850152,118.72 162.29281,118.656 C160.735469,118.592 159.146152,118.496001 157.52481,118.368 C155.903469,118.239999 154.314152,118.026668 152.75681,117.728 C151.199469,117.429332 149.812817,116.928004 148.59681,116.224 C147.380804,115.519996 146.399481,114.560006 145.65281,113.344 C144.90614,112.127994 144.53281,110.538676 144.53281,108.576 C144.53281,107.253327 144.842141,105.952006 145.46081,104.672 C146.07948,103.391994 147.028804,102.261338 148.30881,101.28 C149.588817,100.298662 151.210134,99.4986698 153.17281,98.88 C155.135487,98.2613302 157.439464,97.952 160.08481,97.952 C162.346155,97.952 164.308802,98.122665 165.97281,98.464 C167.636819,98.805335 169.076804,99.1679981 170.29281,99.552 C171.508817,99.9360019 172.532806,100.298665 173.36481,100.64 C174.196815,100.981335 174.890141,101.152 175.44481,101.152 C176.042147,101.152 176.468809,101.024001 176.72481,100.768 L177.49281,101.28 L173.07681,109.28 L172.43681,109.024 C172.351477,108.426664 172.180812,107.936002 171.92481,107.552 C171.583475,107.039997 171.018148,106.538669 170.22881,106.048 C169.439473,105.557331 168.511482,105.120002 167.44481,104.736 C166.378138,104.351998 165.22615,104.042668 163.98881,103.808 C162.751471,103.573332 161.51415,103.456 160.27681,103.456 C159.338139,103.456 158.367482,103.530666 157.36481,103.68 C156.362139,103.829334 155.455481,104.053332 154.64481,104.352 C153.83414,104.650668 153.162146,105.045331 152.62881,105.536 C152.095474,106.026669 151.82881,106.634663 151.82881,107.36 C151.82881,108.384005 152.20214,109.151997 152.94881,109.664 C153.695481,110.176003 154.676804,110.559999 155.89281,110.816 C157.108817,111.072001 158.495469,111.242666 160.05281,111.328 C161.610152,111.413334 163.199469,111.519999 164.82081,111.648 C166.442152,111.776001 168.031469,111.999998 169.58881,112.32 C171.146152,112.640002 172.532804,113.151996 173.74881,113.856 C174.964817,114.560004 175.94614,115.509327 176.69281,116.704 C177.439481,117.898673 177.81281,119.45599 177.81281,121.376 C177.81281,123.594678 177.22615,125.407993 176.05281,126.816 C174.879471,128.224007 173.418153,129.333329 171.66881,130.144 C169.919468,130.954671 168.031487,131.498665 166.00481,131.776 C163.978134,132.053335 162.090153,132.192 160.34081,132.192 C157.908798,132.192 155.871485,132.053335 154.22881,131.776 C152.586136,131.498665 151.220816,131.157335 150.13281,130.752 C149.044805,130.346665 148.180814,129.984002 147.54081,129.664 C146.900807,129.343998 146.346146,129.184 145.87681,129.184 C145.578142,129.184 145.300812,129.354665 145.04481,129.696 L144.14881,129.184 L147.66881,121.44 Z" id="SKS" fill="#FFFFFF"></path>
                <path d="M16.5,179.7 L16.7,179.8 C16.7,179.920001 16.7266664,180.026666 16.78,180.12 C16.8733338,180.280001 17.0566653,180.436666 17.33,180.59 C17.6033347,180.743334 17.9166649,180.879999 18.27,181 C18.6233351,181.120001 18.9933314,181.216666 19.38,181.29 C19.7666686,181.363334 20.1133318,181.4 20.42,181.4 C20.6466678,181.4 20.9399982,181.383333 21.3,181.35 C21.6600018,181.316666 22.0133316,181.246667 22.36,181.14 C22.7066684,181.033333 23.0066654,180.886668 23.26,180.7 C23.5133346,180.513332 23.64,180.266668 23.64,179.96 C23.64,179.653332 23.5233345,179.426667 23.29,179.28 C23.0566655,179.133333 22.7500019,179.026667 22.37,178.96 C21.9899981,178.893333 21.5566691,178.85 21.07,178.83 C20.5833309,178.81 20.0866692,178.78 19.58,178.74 C19.0733308,178.7 18.5766691,178.633334 18.09,178.54 C17.6033309,178.446666 17.1700019,178.290001 16.79,178.07 C16.4099981,177.849999 16.1033345,177.550002 15.87,177.17 C15.6366655,176.789998 15.52,176.293336 15.52,175.68 C15.52,175.266665 15.6166657,174.860002 15.81,174.46 C16.0033343,174.059998 16.299998,173.706668 16.7,173.4 C17.100002,173.093332 17.6066636,172.843334 18.22,172.65 C18.8333364,172.456666 19.5533292,172.36 20.38,172.36 C21.0866702,172.36 21.6999974,172.413333 22.22,172.52 C22.7400026,172.626667 23.1899981,172.739999 23.57,172.86 C23.9500019,172.980001 24.2699987,173.093333 24.53,173.2 C24.7900013,173.306667 25.0066658,173.36 25.18,173.36 C25.3666676,173.36 25.4999996,173.32 25.58,173.24 L25.82,173.4 L24.44,175.9 L24.24,175.82 C24.2133332,175.633332 24.1600004,175.480001 24.08,175.36 C23.9733328,175.199999 23.7966679,175.043334 23.55,174.89 C23.3033321,174.736666 23.013335,174.600001 22.68,174.48 C22.346665,174.359999 21.9866686,174.263334 21.6,174.19 C21.2133314,174.116666 20.8266686,174.08 20.44,174.08 C20.1466652,174.08 19.8433349,174.103333 19.53,174.15 C19.2166651,174.196667 18.9333346,174.266666 18.68,174.36 C18.4266654,174.453334 18.2166675,174.576666 18.05,174.73 C17.8833325,174.883334 17.8,175.073332 17.8,175.3 C17.8,175.620002 17.9166655,175.859999 18.15,176.02 C18.3833345,176.180001 18.6899981,176.3 19.07,176.38 C19.4500019,176.46 19.8833309,176.513333 20.37,176.54 C20.8566691,176.566667 21.3533308,176.6 21.86,176.64 C22.3666692,176.68 22.8633309,176.75 23.35,176.85 C23.8366691,176.95 24.2699981,177.109999 24.65,177.33 C25.0300019,177.550001 25.3366655,177.846665 25.57,178.22 C25.8033345,178.593335 25.92,179.079997 25.92,179.68 C25.92,180.373337 25.7366685,180.939998 25.37,181.38 C25.0033315,181.820002 24.5466694,182.166665 24,182.42 C23.4533306,182.673335 22.8633365,182.843333 22.23,182.93 C21.5966635,183.016667 21.0066694,183.06 20.46,183.06 C19.6999962,183.06 19.0633359,183.016667 18.55,182.93 C18.0366641,182.843333 17.6100017,182.736667 17.27,182.61 C16.9299983,182.483333 16.660001,182.370001 16.46,182.27 C16.259999,182.169999 16.0866674,182.12 15.94,182.12 C15.8466662,182.12 15.7600004,182.173333 15.68,182.28 L15.4,182.12 L16.5,179.7 Z M36.7813362,176.06 C36.7813362,175.806665 36.5746716,175.68 36.1613362,175.68 L31.2813362,175.68 L31.2813362,177.68 L34.3613362,177.68 C34.588004,177.68 34.754669,177.663333 34.8613362,177.63 C34.9680034,177.596666 35.0213362,177.506667 35.0213362,177.36 L35.3813362,177.36 L35.3813362,179.48 L34.9813362,179.48 C35.0213364,179.333333 34.9680036,179.243334 34.8213362,179.21 C34.6746688,179.176667 34.4680042,179.16 34.2013362,179.16 L31.2813362,179.16 L31.2813362,181.52 L36.4013362,181.52 C36.561337,181.52 36.694669,181.483334 36.8013362,181.41 C36.9080034,181.336666 36.9613362,181.240001 36.9613362,181.12 L37.3213362,181.12 L37.3213362,183.22 L36.9613362,183.22 C36.9613362,183.099999 36.9080034,183.033333 36.8013362,183.02 C36.694669,183.006667 36.561337,183 36.4013362,183 L29.0613362,183 L29.0613362,182.64 C29.1280032,182.64 29.1946692,182.616667 29.2613362,182.57 C29.3280032,182.523333 29.3613362,182.446667 29.3613362,182.34 L29.3613362,174.86 C29.3613362,174.753333 29.3280032,174.676667 29.2613362,174.63 C29.1946692,174.583333 29.1280032,174.56 29.0613362,174.56 L29.0613362,174.2 L36.1613362,174.2 C36.5746716,174.2 36.7813362,174.080001 36.7813362,173.84 L37.1413362,173.84 L37.1413362,176.06 L36.7813362,176.06 Z M40.2426725,182.64 C40.4826737,182.64 40.6026725,182.540001 40.6026725,182.34 L40.6026725,174.86 C40.6026725,174.659999 40.4826737,174.56 40.2426725,174.56 L40.2426725,174.2 L43.1826725,174.2 L43.1826725,174.56 C43.0893387,174.573333 43.0426725,174.606666 43.0426725,174.66 C43.0426725,174.726667 43.1893377,174.906665 43.4826725,175.2 L48.2826725,180.28 L48.2826725,174.86 C48.2826725,174.659999 48.1493405,174.56 47.8826725,174.56 L47.8826725,174.2 L50.3226725,174.2 L50.3226725,174.56 C50.0826713,174.56 49.9626725,174.659999 49.9626725,174.86 L49.9626725,182.34 C49.9626725,182.540001 50.0826713,182.64 50.3226725,182.64 L50.3226725,183 L47.7226725,183 L47.7226725,182.64 C47.8160063,182.64 47.8626725,182.606667 47.8626725,182.54 C47.8626725,182.486666 47.7993398,182.393334 47.6726725,182.26 C47.5460052,182.126666 47.4026733,181.973334 47.2426725,181.8 L42.2826725,176.52 L42.2826725,182.34 C42.2826725,182.540001 42.4226711,182.64 42.7026725,182.64 L42.7026725,183 L40.2426725,183 L40.2426725,182.64 Z M53.2440087,174.9 C53.1506749,174.779999 53.0373427,174.693334 52.9040087,174.64 C52.7706747,174.586666 52.6440093,174.56 52.5240087,174.56 L52.5240087,174.2 L55.8240087,174.2 L55.8240087,174.56 C55.7573417,174.56 55.6840091,174.583333 55.6040087,174.63 C55.5240083,174.676667 55.4840087,174.74 55.4840087,174.82 C55.4840087,174.9 55.5106751,174.973333 55.5640087,175.04 C55.6173423,175.106667 55.6773417,175.186666 55.7440087,175.28 L57.7640087,177.92 L59.5440087,175.44 L59.8140087,175.05 C59.874009,174.963333 59.9040087,174.88 59.9040087,174.8 C59.9040087,174.693333 59.8706757,174.626667 59.8040087,174.6 C59.7373417,174.573333 59.6706757,174.56 59.6040087,174.56 L59.6040087,174.2 L62.6640087,174.2 L62.6640087,174.56 C62.5040079,174.56 62.327343,174.649999 62.1340087,174.83 C61.9406744,175.010001 61.7706761,175.193332 61.6240087,175.38 L58.5640087,179.34 L58.5640087,182.34 C58.5640087,182.540001 58.6906741,182.64 58.9440087,182.64 L58.9440087,183 L56.2840087,183 L56.2840087,182.64 C56.5240099,182.64 56.6440087,182.540001 56.6440087,182.34 L56.6440087,179.26 L53.2440087,174.9 Z M65.105345,182.64 C65.172012,182.626667 65.2286781,182.6 65.275345,182.56 C65.3220119,182.52 65.345345,182.426667 65.345345,182.28 L65.345345,174.96 C65.345345,174.773332 65.3286785,174.66 65.295345,174.62 C65.2620115,174.58 65.1986788,174.56 65.105345,174.56 L65.105345,174.2 L67.885345,174.2 L67.885345,174.56 C67.752011,174.56 67.685345,174.619999 67.685345,174.74 C67.685345,174.793334 67.7086781,174.863333 67.755345,174.95 C67.8020119,175.036667 67.8720112,175.159999 67.965345,175.32 L70.405345,179.82 L72.865345,175.34 C72.9586788,175.179999 73.0320114,175.050001 73.085345,174.95 C73.1386786,174.849999 73.165345,174.78 73.165345,174.74 C73.165345,174.619999 73.1120122,174.56 73.005345,174.56 L73.005345,174.2 L75.825345,174.2 L75.825345,174.56 C75.758678,174.56 75.6953453,174.576666 75.635345,174.61 C75.5753447,174.643334 75.545345,174.713333 75.545345,174.82 L75.545345,182.34 C75.545345,182.446667 75.5753447,182.523333 75.635345,182.57 C75.6953453,182.616667 75.758678,182.64 75.825345,182.64 L75.825345,183 L73.505345,183 L73.505345,182.64 C73.7853464,182.64 73.9053452,182.540001 73.865345,182.34 L73.865345,176.72 L73.825345,176.72 L70.425345,183 L70.265345,183 L67.045345,176.72 L67.065345,176.72 L67.025345,176.72 L67.025345,182.34 C67.025345,182.540001 67.1386772,182.64 67.365345,182.64 L67.365345,183 L65.105345,183 L65.105345,182.64 Z M88.1280175,182.28 C88.1280175,182.400001 88.1680171,182.49 88.2480175,182.55 C88.3280179,182.61 88.4213503,182.64 88.5280175,182.64 L88.5280175,183 L85.4080175,183 L85.4080175,182.64 C85.7013523,182.64 85.8480175,182.520001 85.8480175,182.28 L85.8480175,173.2 C85.8480175,172.959999 85.7013523,172.84 85.4080175,172.84 L85.4080175,172.48 L88.5280175,172.48 L88.5280175,172.84 C88.4213503,172.84 88.3280179,172.87 88.2480175,172.93 C88.1680171,172.99 88.1280175,173.079999 88.1280175,173.2 L88.1280175,177 L92.2680175,173.74 C92.4546851,173.579999 92.6013503,173.45 92.7080175,173.35 C92.8146847,173.25 92.8680175,173.166667 92.8680175,173.1 C92.8680175,173.006666 92.8380178,172.94 92.7780175,172.9 C92.7180172,172.86 92.6480179,172.84 92.5680175,172.84 L92.5680175,172.48 L96.7680175,172.48 L96.7680175,172.84 C96.5280163,172.84 96.2880187,172.939999 96.0480175,173.14 L91.4480175,176.8 L95.6480175,181.66 C95.8213517,181.860001 96.024683,182.056666 96.2580175,182.25 C96.491352,182.443334 96.7213497,182.573333 96.9480175,182.64 L96.9480175,183 L93.2480175,183 L93.2480175,182.64 C93.4213517,182.64 93.5080175,182.593334 93.5080175,182.5 C93.5080175,182.433333 93.4146851,182.286668 93.2280175,182.06 L89.8080175,178.12 L88.1280175,179.42 L88.1280175,182.28 Z M98.5693537,174.9 C98.4760199,174.779999 98.3626877,174.693334 98.2293537,174.64 C98.0960197,174.586666 97.9693543,174.56 97.8493537,174.56 L97.8493537,174.2 L101.149354,174.2 L101.149354,174.56 C101.082687,174.56 101.009354,174.583333 100.929354,174.63 C100.849353,174.676667 100.809354,174.74 100.809354,174.82 C100.809354,174.9 100.83602,174.973333 100.889354,175.04 C100.942687,175.106667 101.002687,175.186666 101.069354,175.28 L103.089354,177.92 L104.869354,175.44 L105.139354,175.05 C105.199354,174.963333 105.229354,174.88 105.229354,174.8 C105.229354,174.693333 105.196021,174.626667 105.129354,174.6 C105.062687,174.573333 104.996021,174.56 104.929354,174.56 L104.929354,174.2 L107.989354,174.2 L107.989354,174.56 C107.829353,174.56 107.652688,174.649999 107.459354,174.83 C107.266019,175.010001 107.096021,175.193332 106.949354,175.38 L103.889354,179.34 L103.889354,182.34 C103.889354,182.540001 104.016019,182.64 104.269354,182.64 L104.269354,183 L101.609354,183 L101.609354,182.64 C101.849355,182.64 101.969354,182.540001 101.969354,182.34 L101.969354,179.26 L98.5693537,174.9 Z M115.61069,178 C116.917363,178 117.57069,177.586671 117.57069,176.76 C117.57069,176.426665 117.414025,176.163334 117.10069,175.97 C116.787355,175.776666 116.290693,175.68 115.61069,175.68 L112.45069,175.68 L112.45069,178 L115.61069,178 Z M115.65069,174.2 C116.837363,174.2 117.76402,174.396665 118.43069,174.79 C119.09736,175.183335 119.43069,175.853329 119.43069,176.8 C119.43069,177.160002 119.364024,177.479999 119.23069,177.76 C119.097356,178.040001 118.920691,178.283332 118.70069,178.49 C118.480689,178.696668 118.237358,178.863333 117.97069,178.99 C117.704022,179.116667 117.430691,179.213333 117.15069,179.28 L119.11069,182.14 C119.217357,182.286667 119.334023,182.396666 119.46069,182.47 C119.587357,182.543334 119.724023,182.6 119.87069,182.64 L119.87069,183 L116.81069,183 L116.81069,182.64 C116.984024,182.64 117.07069,182.580001 117.07069,182.46 C117.07069,182.326666 116.970691,182.120001 116.77069,181.84 L115.19069,179.48 L112.41069,179.48 L112.41069,182.34 C112.41069,182.446667 112.454023,182.523333 112.54069,182.57 C112.627357,182.616667 112.71069,182.64 112.79069,182.64 L112.79069,183 L110.13069,183 L110.13069,182.64 C110.370691,182.64 110.49069,182.540001 110.49069,182.34 L110.49069,174.86 C110.49069,174.659999 110.370691,174.56 110.13069,174.56 L110.13069,174.2 L115.65069,174.2 Z M122.072026,174.9 C121.978692,174.779999 121.86536,174.693334 121.732026,174.64 C121.598692,174.586666 121.472027,174.56 121.352026,174.56 L121.352026,174.2 L124.652026,174.2 L124.652026,174.56 C124.585359,174.56 124.512027,174.583333 124.432026,174.63 C124.352026,174.676667 124.312026,174.74 124.312026,174.82 C124.312026,174.9 124.338693,174.973333 124.392026,175.04 C124.44536,175.106667 124.505359,175.186666 124.572026,175.28 L126.592026,177.92 L128.372026,175.44 L128.642026,175.05 C128.702027,174.963333 128.732026,174.88 128.732026,174.8 C128.732026,174.693333 128.698693,174.626667 128.632026,174.6 C128.565359,174.573333 128.498693,174.56 128.432026,174.56 L128.432026,174.2 L131.492026,174.2 L131.492026,174.56 C131.332025,174.56 131.155361,174.649999 130.962026,174.83 C130.768692,175.010001 130.598694,175.193332 130.452026,175.38 L127.392026,179.34 L127.392026,182.34 C127.392026,182.540001 127.518692,182.64 127.772026,182.64 L127.772026,183 L125.112026,183 L125.112026,182.64 C125.352027,182.64 125.472026,182.540001 125.472026,182.34 L125.472026,179.26 L122.072026,174.9 Z M136.493362,174.2 L136.493362,174.56 C136.186694,174.56 136.033362,174.659999 136.033362,174.86 L136.033362,181.52 L141.433362,181.52 C141.593363,181.52 141.726695,181.483334 141.833362,181.41 C141.94003,181.336666 141.993362,181.233334 141.993362,181.1 L142.353362,181.1 L142.353362,183.2 L141.993362,183.2 C141.993362,183.093333 141.94003,183.033333 141.833362,183.02 C141.726695,183.006667 141.593363,183 141.433362,183 L133.593362,183 L133.593362,182.64 C133.940031,182.64 134.113362,182.540001 134.113362,182.34 L134.113362,174.86 C134.113362,174.659999 133.940031,174.56 133.593362,174.56 L133.593362,174.2 L136.493362,174.2 Z M144.474699,174.9 C144.381365,174.779999 144.268033,174.693334 144.134699,174.64 C144.001365,174.586666 143.874699,174.56 143.754699,174.56 L143.754699,174.2 L147.054699,174.2 L147.054699,174.56 C146.988032,174.56 146.914699,174.583333 146.834699,174.63 C146.754698,174.676667 146.714699,174.74 146.714699,174.82 C146.714699,174.9 146.741365,174.973333 146.794699,175.04 C146.848032,175.106667 146.908032,175.186666 146.974699,175.28 L148.994699,177.92 L150.774699,175.44 L151.044699,175.05 C151.104699,174.963333 151.134699,174.88 151.134699,174.8 C151.134699,174.693333 151.101366,174.626667 151.034699,174.6 C150.968032,174.573333 150.901366,174.56 150.834699,174.56 L150.834699,174.2 L153.894699,174.2 L153.894699,174.56 C153.734698,174.56 153.558033,174.649999 153.364699,174.83 C153.171364,175.010001 153.001366,175.193332 152.854699,175.38 L149.794699,179.34 L149.794699,182.34 C149.794699,182.540001 149.921364,182.64 150.174699,182.64 L150.174699,183 L147.514699,183 L147.514699,182.64 C147.7547,182.64 147.874699,182.540001 147.874699,182.34 L147.874699,179.26 L144.474699,174.9 Z M156.696035,179.94 C156.696035,179.993334 156.692702,180.05 156.686035,180.11 C156.679368,180.17 156.676035,180.233333 156.676035,180.3 C156.676035,180.500001 156.8027,180.683333 157.056035,180.85 C157.30937,181.016668 157.6127,181.156666 157.966035,181.27 C158.31937,181.383334 158.6727,181.473333 159.026035,181.54 C159.37937,181.606667 159.656034,181.64 159.856035,181.64 C160.042703,181.64 160.2727,181.626667 160.546035,181.6 C160.81937,181.573333 161.089367,181.516667 161.356035,181.43 C161.622703,181.343333 161.849367,181.223334 162.036035,181.07 C162.222703,180.916666 162.316035,180.713335 162.316035,180.46 C162.316035,180.166665 162.152703,179.953334 161.826035,179.82 C161.499367,179.686666 161.089371,179.583334 160.596035,179.51 C160.102699,179.436666 159.569371,179.363334 158.996035,179.29 C158.422699,179.216666 157.889371,179.096667 157.396035,178.93 C156.902699,178.763332 156.492703,178.523335 156.166035,178.21 C155.839367,177.896665 155.676035,177.453336 155.676035,176.88 C155.676035,176.026662 156.029365,175.346669 156.736035,174.84 C157.442705,174.333331 158.436029,174.08 159.716035,174.08 C160.342705,174.08 160.879366,174.129999 161.326035,174.23 C161.772704,174.330001 162.149367,174.439999 162.456035,174.56 C162.762703,174.680001 163.012701,174.789999 163.206035,174.89 C163.399369,174.990001 163.542701,175.04 163.636035,175.04 C163.742702,175.04 163.822701,175.023334 163.876035,174.99 C163.929369,174.956667 163.996035,174.92 164.076035,174.88 L164.296035,175.1 L163.296035,176.98 L162.936035,176.86 L162.896035,176.62 C162.882702,176.54 162.822702,176.46 162.716035,176.38 C162.449367,176.153332 162.036038,175.960001 161.476035,175.8 C160.916032,175.639999 160.289372,175.56 159.596035,175.56 C159.329367,175.56 159.076036,175.576666 158.836035,175.61 C158.596034,175.643334 158.382703,175.7 158.196035,175.78 C158.009367,175.86 157.862702,175.963333 157.756035,176.09 C157.649368,176.216667 157.596035,176.373332 157.596035,176.56 C157.596035,176.853335 157.759367,177.063333 158.086035,177.19 C158.412703,177.316667 158.822699,177.416666 159.316035,177.49 C159.809371,177.563334 160.342699,177.636666 160.916035,177.71 C161.489371,177.783334 162.022699,177.906666 162.516035,178.08 C163.009371,178.253334 163.419367,178.506665 163.746035,178.84 C164.072703,179.173335 164.236035,179.63333 164.236035,180.22 C164.236035,180.80667 164.092703,181.286665 163.806035,181.66 C163.519367,182.033335 163.162704,182.326666 162.736035,182.54 C162.309366,182.753334 161.839371,182.893333 161.326035,182.96 C160.812699,183.026667 160.329371,183.06 159.876035,183.06 C159.422699,183.06 158.972704,183.016667 158.526035,182.93 C158.079366,182.843333 157.672703,182.743334 157.306035,182.63 C156.939366,182.516666 156.62937,182.41 156.376035,182.31 C156.1227,182.21 155.969369,182.16 155.916035,182.16 C155.822701,182.16 155.742702,182.2 155.676035,182.28 L155.396035,182.08 L156.316035,179.84 L156.696035,179.94 Z M174.358707,179.7 L174.558707,179.8 C174.558707,179.920001 174.585374,180.026666 174.638707,180.12 C174.732041,180.280001 174.915373,180.436666 175.188707,180.59 C175.462042,180.743334 175.775372,180.879999 176.128707,181 C176.482043,181.120001 176.852039,181.216666 177.238707,181.29 C177.625376,181.363334 177.972039,181.4 178.278707,181.4 C178.505375,181.4 178.798706,181.383333 179.158707,181.35 C179.518709,181.316666 179.872039,181.246667 180.218707,181.14 C180.565376,181.033333 180.865373,180.886668 181.118707,180.7 C181.372042,180.513332 181.498707,180.266668 181.498707,179.96 C181.498707,179.653332 181.382042,179.426667 181.148707,179.28 C180.915373,179.133333 180.608709,179.026667 180.228707,178.96 C179.848706,178.893333 179.415377,178.85 178.928707,178.83 C178.442038,178.81 177.945377,178.78 177.438707,178.74 C176.932038,178.7 176.435377,178.633334 175.948707,178.54 C175.462038,178.446666 175.028709,178.290001 174.648707,178.07 C174.268706,177.849999 173.962042,177.550002 173.728707,177.17 C173.495373,176.789998 173.378707,176.293336 173.378707,175.68 C173.378707,175.266665 173.475373,174.860002 173.668707,174.46 C173.862042,174.059998 174.158705,173.706668 174.558707,173.4 C174.958709,173.093332 175.465371,172.843334 176.078707,172.65 C176.692044,172.456666 177.412037,172.36 178.238707,172.36 C178.945378,172.36 179.558705,172.413333 180.078707,172.52 C180.59871,172.626667 181.048706,172.739999 181.428707,172.86 C181.808709,172.980001 182.128706,173.093333 182.388707,173.2 C182.648709,173.306667 182.865373,173.36 183.038707,173.36 C183.225375,173.36 183.358707,173.32 183.438707,173.24 L183.678707,173.4 L182.298707,175.9 L182.098707,175.82 C182.072041,175.633332 182.018708,175.480001 181.938707,175.36 C181.83204,175.199999 181.655375,175.043334 181.408707,174.89 C181.16204,174.736666 180.872042,174.600001 180.538707,174.48 C180.205372,174.359999 179.845376,174.263334 179.458707,174.19 C179.072039,174.116666 178.685376,174.08 178.298707,174.08 C178.005373,174.08 177.702042,174.103333 177.388707,174.15 C177.075373,174.196667 176.792042,174.266666 176.538707,174.36 C176.285373,174.453334 176.075375,174.576666 175.908707,174.73 C175.74204,174.883334 175.658707,175.073332 175.658707,175.3 C175.658707,175.620002 175.775373,175.859999 176.008707,176.02 C176.242042,176.180001 176.548706,176.3 176.928707,176.38 C177.308709,176.46 177.742038,176.513333 178.228707,176.54 C178.715377,176.566667 179.212038,176.6 179.718707,176.64 C180.225377,176.68 180.722038,176.75 181.208707,176.85 C181.695377,176.95 182.128706,177.109999 182.508707,177.33 C182.888709,177.550001 183.195373,177.846665 183.428707,178.22 C183.662042,178.593335 183.778707,179.079997 183.778707,179.68 C183.778707,180.373337 183.595376,180.939998 183.228707,181.38 C182.862039,181.820002 182.405377,182.166665 181.858707,182.42 C181.312038,182.673335 180.722044,182.843333 180.088707,182.93 C179.455371,183.016667 178.865377,183.06 178.318707,183.06 C177.558704,183.06 176.922043,183.016667 176.408707,182.93 C175.895372,182.843333 175.468709,182.736667 175.128707,182.61 C174.788706,182.483333 174.518708,182.370001 174.318707,182.27 C174.118706,182.169999 173.945375,182.12 173.798707,182.12 C173.705374,182.12 173.618708,182.173333 173.538707,182.28 L173.258707,182.12 L174.358707,179.7 Z M186.900044,182.64 C187.140045,182.64 187.260044,182.540001 187.260044,182.34 L187.260044,174.86 C187.260044,174.659999 187.140045,174.56 186.900044,174.56 L186.900044,174.2 L189.840044,174.2 L189.840044,174.56 C189.74671,174.573333 189.700044,174.606666 189.700044,174.66 C189.700044,174.726667 189.846709,174.906665 190.140044,175.2 L194.940044,180.28 L194.940044,174.86 C194.940044,174.659999 194.806712,174.56 194.540044,174.56 L194.540044,174.2 L196.980044,174.2 L196.980044,174.56 C196.740042,174.56 196.620044,174.659999 196.620044,174.86 L196.620044,182.34 C196.620044,182.540001 196.740042,182.64 196.980044,182.64 L196.980044,183 L194.380044,183 L194.380044,182.64 C194.473377,182.64 194.520044,182.606667 194.520044,182.54 C194.520044,182.486666 194.456711,182.393334 194.330044,182.26 C194.203376,182.126666 194.060044,181.973334 193.900044,181.8 L188.940044,176.52 L188.940044,182.34 C188.940044,182.540001 189.080042,182.64 189.360044,182.64 L189.360044,183 L186.900044,183 L186.900044,182.64 Z M205.68138,179.32 L204.06138,175.96 L202.64138,179.32 L205.68138,179.32 Z M199.00138,182.64 C199.161381,182.613333 199.291379,182.536667 199.39138,182.41 C199.49138,182.283333 199.568046,182.166667 199.62138,182.06 L202.60138,175.56 C202.68138,175.373332 202.744713,175.223334 202.79138,175.11 C202.838047,174.996666 202.86138,174.886667 202.86138,174.78 C202.86138,174.7 202.844713,174.65 202.81138,174.63 C202.778046,174.61 202.74138,174.586667 202.70138,174.56 L202.70138,174.2 L205.72138,174.2 L205.72138,174.56 C205.68138,174.586667 205.638047,174.606667 205.59138,174.62 C205.544713,174.633333 205.52138,174.686666 205.52138,174.78 C205.52138,174.86 205.55138,174.956666 205.61138,175.07 C205.67138,175.183334 205.734713,175.313333 205.80138,175.46 L209.04138,182.26 C209.108047,182.380001 209.18138,182.466666 209.26138,182.52 C209.34138,182.573334 209.428046,182.613333 209.52138,182.64 L209.52138,183 L206.68138,183 L206.68138,182.7 C206.748047,182.7 206.818046,182.68 206.89138,182.64 C206.964714,182.6 207.00138,182.526667 207.00138,182.42 C207.00138,182.34 206.988047,182.266667 206.96138,182.2 C206.934713,182.133333 206.90138,182.046667 206.86138,181.94 L206.32138,180.8 L202.04138,180.8 L201.48138,181.88 C201.428046,181.986667 201.384713,182.083333 201.35138,182.17 C201.318046,182.256667 201.30138,182.333333 201.30138,182.4 C201.30138,182.506667 201.334713,182.573333 201.40138,182.6 C201.468047,182.626667 201.561379,182.64 201.68138,182.64 L201.68138,183 L199.00138,183 L199.00138,182.64 Z M217.242716,177.68 C217.562718,177.68 217.862715,177.613334 218.142716,177.48 C218.422718,177.346666 218.562716,177.073335 218.562716,176.66 C218.562716,176.446666 218.522717,176.276667 218.442716,176.15 C218.362716,176.023333 218.262717,175.923334 218.142716,175.85 C218.022716,175.776666 217.882717,175.73 217.722716,175.71 C217.562715,175.69 217.402717,175.68 217.242716,175.68 L213.682716,175.68 L213.682716,177.68 L217.242716,177.68 Z M217.202716,181.52 C217.816053,181.52 218.236048,181.420001 218.462716,181.22 C218.689384,181.019999 218.802716,180.740002 218.802716,180.38 C218.802716,179.966665 218.656051,179.660001 218.362716,179.46 C218.069381,179.259999 217.576053,179.16 216.882716,179.16 L213.682716,179.16 L213.682716,181.52 L217.202716,181.52 Z M211.762716,174.86 C211.762716,174.753333 211.712717,174.676667 211.612716,174.63 C211.512716,174.583333 211.409383,174.56 211.302716,174.56 L211.302716,174.2 L217.522716,174.2 C218.029385,174.2 218.466048,174.259999 218.832716,174.38 C219.199385,174.500001 219.506048,174.663332 219.752716,174.87 C219.999384,175.076668 220.182716,175.313332 220.302716,175.58 C220.422717,175.846668 220.482716,176.126665 220.482716,176.42 C220.482716,176.660001 220.442717,176.883332 220.362716,177.09 C220.282716,177.296668 220.179383,177.483332 220.052716,177.65 C219.926049,177.816667 219.78605,177.966666 219.632716,178.1 C219.479382,178.233334 219.322717,178.34 219.162716,178.42 L219.162716,178.44 C219.349384,178.52 219.536049,178.626666 219.722716,178.76 C219.909384,178.893334 220.076049,179.053332 220.222716,179.24 C220.369384,179.426668 220.489382,179.639999 220.582716,179.88 C220.67605,180.120001 220.722716,180.379999 220.722716,180.66 C220.722716,180.980002 220.662717,181.279999 220.542716,181.56 C220.422716,181.840001 220.232717,182.086666 219.972716,182.3 C219.712715,182.513334 219.372718,182.683333 218.952716,182.81 C218.532714,182.936667 218.029386,183 217.442716,183 L211.302716,183 L211.302716,182.64 C211.409383,182.64 211.512716,182.616667 211.612716,182.57 C211.712717,182.523333 211.762716,182.446667 211.762716,182.34 L211.762716,174.86 Z" id="Senym-Kyrylys-Snab" fill="#FFFFFF"></path>
            </g>
        </g>
    </g>
</svg>