<?xml version="1.0" encoding="UTF-8"?>
<svg width="236px" height="184px" viewBox="0 0 236 184" version="1.1" xmlns="http://www.w3.org/2000/svg" xmlns:xlink="http://www.w3.org/1999/xlink">
    <!-- Generator: Sketch 42 (36781) - http://www.bohemiancoding.com/sketch -->
    <title>Group 3</title>
    <desc>Created with Sketch.</desc>
    <defs></defs>
    <g id="Page-1" stroke="none" stroke-width="1" fill="none" fill-rule="evenodd">
        <g id="Artboard" transform="translate(-69.000000, -170.000000)">
            <g id="Group-3" transform="translate(69.000000, 170.000000)">
                <g id="Group-2" fill="#FFDA00">
                    <polygon id="Path" points="17.8317005 163.286494 17.8317005 35.6125349 18.6397908 37.3573367 22.1929177 58.5053331 32.8491659 163.286494"></polygon>
                    <polygon id="Path" transform="translate(58.238363, 32.931935) rotate(62.000000) translate(-58.238363, -32.931935) " points="55.8491484 96.7689146 55.8491484 -30.9050441 57.8426764 -18.5848241 60.6275779 96.6593636"></polygon>
                    <polygon id="Path-2" points="1.36117813 61.005577 17.8168772 35.6379064 112.51448 2.26416771 96.3719572 9.19475637 18.0977594 37.5420448 7.25747674 57.4010022"></polygon>
                </g>
                <g id="Group-2" transform="translate(178.000000, 82.000000) scale(-1, 1) translate(-178.000000, -82.000000) translate(120.000000, 0.000000)" fill="#FFDA00">
                    <polygon id="Path" points="17.8317005 163.286494 17.8317005 35.6125349 18.6397908 37.3573367 22.1929177 58.5053331 32.8491659 163.286494"></polygon>
                    <polygon id="Path" transform="translate(58.238363, 32.931935) rotate(62.000000) translate(-58.238363, -32.931935) " points="55.8491484 96.7689146 55.8491484 -30.9050441 57.8426764 -18.5848241 60.6275779 96.6593636"></polygon>
                    <polygon id="Path-2" points="1.36117813 61.005577 17.8168772 35.6379064 112.51448 2.26416771 96.3719572 9.19475637 18.0977594 37.5420448 7.25747674 57.4010022"></polygon>
                </g>
                <text id="SKS" font-family="Copperplate" font-size="64" font-weight="normal" letter-spacing="0.146405235" fill="#000000">
                    <tspan x="54" y="132">SKS</tspan>
                </text>
                <text id="Senym-Kyrylys-Snab" font-family="Copperplate" font-size="20" font-weight="normal" letter-spacing="0.0813362449" fill="#000000">
                    <tspan x="14" y="183">Senym Kyrylys Snab</tspan>
                </text>
            </g>
        </g>
    </g>
</svg>